<svg width="24" height="24" viewBox="0 0 24 24" fill="none" xmlns="http://www.w3.org/2000/svg">
<mask id="mask0_227_2078" style="mask-type:luminance" maskUnits="userSpaceOnUse" x="12" y="10" width="10" height="10">
<path d="M21.6013 12.2233C21.6013 11.5137 21.538 10.8318 21.4191 10.1777H12.001V14.0456H17.3825C17.1504 15.296 16.4463 16.3543 15.3869 17.0639V19.5726H18.6184C20.5096 17.8313 21.6001 15.2683 21.6001 12.2222L21.6013 12.2233Z" fill="white"/>
</mask>
<g mask="url(#mask0_227_2078)">
<path d="M27.1573 4.62305H6.44531V25.1295H27.1573V4.62305Z" fill="#3E82F1"/>
</g>
<mask id="mask1_227_2078" style="mask-type:luminance" maskUnits="userSpaceOnUse" x="3" y="13" width="16" height="10">
<path d="M12.0016 22.0023C14.7013 22.0023 16.9656 21.1073 18.6202 19.5792L15.3887 17.0706C14.4936 17.6703 13.3476 18.0256 12.0027 18.0256C9.39861 18.0256 7.19316 16.2666 6.40692 13.9023H3.06543V16.4931C4.71119 19.7613 8.09266 22.0023 12.0016 22.0023Z" fill="white"/>
</mask>
<g mask="url(#mask1_227_2078)">
<path d="M24.1782 8.34766H-2.48828V27.5593H24.1782V8.34766Z" fill="#32A753"/>
</g>
<mask id="mask2_227_2078" style="mask-type:luminance" maskUnits="userSpaceOnUse" x="2" y="7" width="5" height="10">
<path d="M6.40535 13.9066C6.20546 13.3069 6.09219 12.6661 6.09219 12.0065C6.09219 11.3469 6.20546 10.7061 6.40535 10.1064V7.51562H3.06386C2.38645 8.86599 2 10.3929 2 12.0065C2 13.62 2.38645 15.147 3.06386 16.4974L6.40535 13.9066Z" fill="white"/>
</mask>
<g mask="url(#mask2_227_2078)">
<path d="M11.9602 1.95703H-3.55566V22.0504H11.9602V1.95703Z" fill="#F9BB00"/>
</g>
<mask id="mask3_227_2078" style="mask-type:luminance" maskUnits="userSpaceOnUse" x="3" y="2" width="16" height="9">
<path d="M12.0016 5.9767C13.4697 5.9767 14.7878 6.48087 15.8239 7.47255L18.6924 4.60412C16.96 2.99057 14.6968 2 12.0016 2C8.09263 2 4.71005 4.24099 3.0654 7.50919L6.40689 10.1C7.19313 7.73685 9.39747 5.9767 12.0027 5.9767H12.0016Z" fill="white"/>
</mask>
<g mask="url(#mask3_227_2078)">
<path d="M24.2503 -3.55469H-2.48831V15.657H24.2503V-3.55469Z" fill="#E74133"/>
</g>
</svg>
