<svg width="14" height="14" viewBox="0 0 14 14" fill="none" xmlns="http://www.w3.org/2000/svg">
<path d="M11.9086 4.53681L11.752 4.897C11.7276 4.95565 11.6863 5.00575 11.6334 5.041C11.5805 5.07624 11.5184 5.09504 11.4548 5.09504C11.3913 5.09504 11.3292 5.07624 11.2763 5.041C11.2234 5.00575 11.1821 4.95565 11.1577 4.897L11.0011 4.53681C10.7259 3.89961 10.2218 3.38873 9.58835 3.10495L9.10533 2.88922C9.04673 2.86226 8.99709 2.81907 8.9623 2.76476C8.9275 2.71045 8.909 2.6473 8.909 2.5828C8.909 2.5183 8.9275 2.45515 8.9623 2.40084C8.99709 2.34653 9.04673 2.30334 9.10533 2.27638L9.56162 2.07338C10.211 1.78152 10.7237 1.25174 10.9941 0.593158L11.1551 0.20433C11.1788 0.144099 11.22 0.0923891 11.2735 0.0559417C11.3269 0.0194943 11.3901 0 11.4548 0C11.5196 0 11.5828 0.0194943 11.6362 0.0559417C11.6897 0.0923891 11.7309 0.144099 11.7546 0.20433L11.9156 0.592522C12.1857 1.25122 12.6982 1.78124 13.3474 2.07338L13.8044 2.27702C13.8628 2.30405 13.9123 2.34724 13.9469 2.40148C13.9816 2.45572 14 2.51875 14 2.58312C14 2.64749 13.9816 2.71052 13.9469 2.76476C13.9123 2.819 13.8628 2.86219 13.8044 2.88922L13.3207 3.10432C12.6874 3.38837 12.1836 3.89949 11.9086 4.53681ZM11.4548 6.36449C11.8868 6.36484 12.3156 6.29189 12.7232 6.14876C12.7261 6.22088 12.7276 6.29279 12.7276 6.36449C12.7276 7.71472 12.1912 9.00965 11.2365 9.96441C10.2817 10.9192 8.98679 11.4555 7.63657 11.4555V13.6829C4.45466 12.4101 0 10.501 0 6.36449C0 5.01426 0.536376 3.71934 1.49113 2.76458C2.44589 1.80983 3.74082 1.27345 5.09104 1.27345H7.63657C7.70869 1.27345 7.7806 1.27493 7.8523 1.2779C7.6495 1.85378 7.58775 2.46989 7.67223 3.07456C7.75671 3.67923 7.98497 4.25482 8.33784 4.75306C8.69072 5.2513 9.15792 5.65765 9.70027 5.93804C10.2426 6.21842 10.8443 6.36466 11.4548 6.36449Z" fill="url(#paint0_linear_227_2128)"/>
<defs>
<linearGradient id="paint0_linear_227_2128" x1="7" y1="0" x2="7" y2="13.6829" gradientUnits="userSpaceOnUse">
<stop stop-color="#4284FF"/>
<stop offset="1" stop-color="#9C98FF"/>
</linearGradient>
</defs>
</svg>
